<?xml version="1.0" encoding="UTF-8"?>
<!-- Generator: visioncortex VTracer 0.6.12 -->
<svg version="1.1" xmlns="http://www.w3.org/2000/svg" width="72" height="72">
<path d="M0 0 C23.76 0 47.52 0 72 0 C72 23.76 72 47.52 72 72 C48.24 72 24.48 72 0 72 C0 48.24 0 24.48 0 0 Z " fill="#DB2F45" transform="translate(0,0)"/>
<path d="M0 0 C0.7715 0.0032 1.543 0.0064 2.3379 0.0098 C3.0978 -0.0063 3.8577 -0.0225 4.6406 -0.0391 C9.294 -0.0431 12.3616 0.3871 16.0254 3.3223 C18.5093 7.0481 18.4058 8.9094 18.0254 13.3223 C16.5254 16.2598 16.5254 16.2598 15.0254 18.3223 C15.8298 18.941 16.6341 19.5598 17.4629 20.1973 C20.0254 22.3223 20.0254 22.3223 21.0254 24.3223 C21.375 29.6535 21.3171 33.0178 18.0254 37.3223 C13.9762 41.3714 8.2708 40.5055 2.9004 40.5098 C2.0767 40.522 1.253 40.5343 0.4043 40.5469 C-1.7233 40.5521 -3.8505 40.4449 -5.9746 40.3223 C-8.5203 37.7766 -8.2218 36.1305 -8.2525 32.6582 C-8.2485 31.8873 -8.2444 31.1165 -8.2402 30.3223 C-8.2421 29.5308 -8.2441 28.7393 -8.246 27.9238 C-8.2474 26.2493 -8.2437 24.5749 -8.2354 22.9004 C-8.2247 20.3324 -8.2352 17.7652 -8.248 15.1973 C-8.2467 13.5723 -8.2442 11.9473 -8.2402 10.3223 C-8.2443 9.5514 -8.2483 8.7805 -8.2525 7.9863 C-8.1918 1.1133 -6.8501 0.0658 0 0 Z " fill="#F9DCE0" transform="translate(47.974609375,15.677734375)"/>
<path d="M0 0 C3.474 1.1826 4.0143 1.9498 5.9375 5 C8.0757 9.8717 9.8512 14.8828 11.6875 19.875 C11.9472 20.5563 11.9472 20.5563 13.2617 24.0039 C13.7477 25.32 14.2337 26.6362 14.7344 27.9922 C14.9579 28.5922 14.9579 28.5922 16.0889 31.6284 C16.9895 35.2064 16.8207 37.4515 15.9375 41 C13.9575 41 11.9775 41 9.9375 41 C6.9375 35.25 6.9375 35.25 6.9375 33 C1.6575 33 -3.6225 33 -9.0625 33 C-9.2275 33.99 -9.2275 33.99 -10.0625 39 C-10.3925 39.66 -10.7225 40.32 -11.0625 41 C-13.062 41.0425 -15.0629 41.0408 -17.0625 41 C-18.0625 40 -18.0625 40 -18.2666 36.8679 C-18.0527 32.8137 -17.2269 29.8999 -15.7969 26.1133 C-15.3186 24.8455 -14.8404 23.5777 -14.3477 22.2715 C-13.8411 20.965 -13.3345 19.6586 -12.8125 18.3125 C-12.3214 16.9944 -11.8302 15.6764 -11.3242 14.3184 C-5.848 0 -5.848 0 0 0 Z " fill="#FAE5E8" transform="translate(21.0625,15)"/>
</svg>
