<?xml version="1.0" encoding="UTF-8"?>
<svg xmlns="http://www.w3.org/2000/svg" version="1.1" width="72" height="72" viewBox="0 0 72 72">
<metadata><app-name>Image Vectorizer v1.27.4</app-name><export-timestamp>2026-08-03 14:59:26</export-timestamp><source-image>twemoji_binary_graphic_1f1e7-1f1ed.png</source-image></metadata><path d="M0 0 C1.268115 -0.012609 2.53623 -0.025217 3.842773 -0.038208 C5.223313 -0.031048 6.603847 -0.022844 7.984375 -0.013672 C9.403974 -0.016367 10.823571 -0.020251 12.243164 -0.025269 C15.215674 -0.03116 18.187702 -0.022611 21.160156 -0.003906 C24.966963 0.018884 28.772641 0.005759 32.579407 -0.018196 C35.510015 -0.032663 38.440356 -0.028044 41.370972 -0.017685 C42.774375 -0.01502 44.177802 -0.018279 45.581177 -0.027603 C47.543696 -0.037781 49.506301 -0.019512 51.46875 0 C52.584756 0.003182 53.700762 0.006365 54.850586 0.009644 C58.426511 0.639487 59.607684 1.608311 61.734375 4.517578 C62.24231 6.64209 62.24231 6.64209 62.251953 8.947266 C62.264562 9.814966 62.27717 10.682666 62.290161 11.57666 C62.282064 12.505913 62.273967 13.435166 62.265625 14.392578 C62.267538 14.873318 62.267538 14.873318 62.277222 17.306152 C62.279941 19.336925 62.272578 21.367732 62.255859 23.398438 C62.23445 26.506654 62.25566 29.612559 62.28125 32.720703 C62.278607 34.694667 62.273482 36.668629 62.265625 38.642578 C62.273722 39.571831 62.281819 40.501084 62.290161 41.458496 C62.277552 42.326196 62.264944 43.193896 62.251953 44.087891 C62.248771 44.848599 62.245588 45.609307 62.24231 46.393066 C61.50494 49.477222 60.261396 50.63725 57.734375 52.517578 C54.850586 53.025513 54.850586 53.025513 51.46875 53.035156 C50.200635 53.047765 48.93252 53.060374 47.625977 53.073364 C46.245437 53.066204 44.864903 53.058 43.484375 53.048828 C42.064776 53.051524 40.645179 53.055407 39.225586 53.060425 C36.253076 53.066317 33.281048 53.057768 30.308594 53.039062 C26.501787 53.016272 22.696109 53.029397 18.889343 53.053352 C15.958735 53.067819 13.028394 53.0632 10.097778 53.052841 C8.694375 53.050176 7.290948 53.053435 5.887573 53.062759 C3.925054 53.072938 1.962449 53.054669 0 53.035156 C-1.116006 53.031974 -2.232012 53.028792 -3.381836 53.025513 C-6.957761 52.395669 -8.138934 51.426845 -10.265625 48.517578 C-10.77356 46.393066 -10.77356 46.393066 -10.783203 44.087891 C-10.795812 43.22019 -10.80842 42.35249 -10.821411 41.458496 C-10.813314 40.529243 -10.805217 39.59999 -10.796875 38.642578 C-10.800702 37.681099 -10.804529 36.719619 -10.808472 35.729004 C-10.811191 33.698232 -10.803828 31.667424 -10.787109 29.636719 C-10.7657 26.528502 -10.78691 23.422598 -10.8125 20.314453 C-10.809857 18.34049 -10.804732 16.366528 -10.796875 14.392578 C-10.804972 13.463325 -10.813069 12.534072 -10.821411 11.57666 C-10.808802 10.70896 -10.796194 9.84126 -10.783203 8.947266 C-10.780021 8.186558 -10.776838 7.42585 -10.77356 6.64209 C-9.38893 0.850671 -5.356003 0.015273 0 0 Z " fill="#CE1126" transform="translate(10.265625,9.482421875)" />
<path d="M0 0 C0.372539 0.009023 0.372539 0.009023 2.257812 0.054688 C4.089097 0.101644 5.919716 0.173383 7.75 0.25 C7.75 0.91 7.75 1.57 7.75 2.25 C8.141875 2.311875 8.141875 2.311875 10.125 2.625 C12.75 3.25 12.75 3.25 14.75 5.25 C12.397227 7.974263 10.125037 9.064176 6.75 10.25 C9.75 12.25 9.75 12.25 11.875 13.1875 C13.75 14.25 13.75 14.25 14.75 17.25 C11.78 18.57 8.81 19.89 5.75 21.25 C7.235 21.91 7.235 21.91 14.75 25.25 C14.75 25.91 14.75 26.57 14.75 27.25 C11.78 28.57 8.81 29.89 5.75 31.25 C7.235 31.91 7.235 31.91 14.75 35.25 C14.42 36.24 14.09 37.23 13.75 38.25 C10.1875 39.9375 10.1875 39.9375 6.75 41.25 C8.75 43.25 8.75 43.25 11.3125 44.1875 C11.714688 44.362813 11.714688 44.362813 13.75 45.25 C14.08 46.24 14.41 47.23 14.75 48.25 C12.102611 49.710629 10.855517 50.25 7.75 50.25 C7.75 50.91 7.75 51.57 7.75 52.25 C5.165542 52.358187 2.585626 52.437372 0 52.5 C-0.729609 52.533516 -1.459219 52.567031 -2.210938 52.601562 C-5.422436 52.659953 -7.715715 52.590214 -10.459961 50.842773 C-13.205678 46.865752 -12.822432 43.101253 -12.78125 38.375 C-12.785077 37.413521 -12.788904 36.452041 -12.792847 35.461426 C-12.795566 33.430653 -12.788203 31.399846 -12.771484 29.369141 C-12.750075 26.260924 -12.771285 23.155019 -12.796875 20.046875 C-12.794232 18.072912 -12.789107 16.09895 -12.78125 14.125 C-12.789347 13.195747 -12.797444 12.266494 -12.805786 11.309082 C-12.712954 4.920563 -12.712954 4.920563 -10.459961 1.657227 C-7.115161 -0.472626 -3.82149 -0.175545 0 0 Z " fill="#EDECEC" transform="translate(12.25,9.75)" />
</svg>
