<?xml version="1.0" encoding="UTF-8"?>
<!-- Generator: visioncortex VTracer 0.6.12 -->
<svg version="1.1" xmlns="http://www.w3.org/2000/svg" width="72" height="72">
<path d="M0 0 C23.76 0 47.52 0 72 0 C72 23.76 72 47.52 72 72 C48.24 72 24.48 72 0 72 C0 48.24 0 24.48 0 0 Z " fill="#9166CB" transform="translate(0,0)"/>
<path d="M0 0 C0.4628 -0.0164 0.4628 -0.0164 2.8047 -0.0996 C9.7046 -0.1532 13.3682 1.2702 18.875 5.4375 C23.7896 10.4815 25.166 15.876 25.25 22.8125 C25.1393 28.887 24.2865 32.41 20.875 37.4375 C14.1495 43.8827 9.1284 44.7798 0.25 44.75 C-0.7168 44.7661 -1.6836 44.7822 -2.6797 44.7988 C-3.6027 44.7995 -4.5256 44.8001 -5.4766 44.8008 C-6.3204 44.8038 -7.1643 44.8067 -8.0337 44.8098 C-8.7238 44.687 -9.414 44.5641 -10.125 44.4375 C-12.7307 40.5289 -12.4127 37.2169 -12.3906 32.6836 C-12.3925 31.8269 -12.3945 30.9703 -12.3964 30.0877 C-12.3978 28.2779 -12.3941 26.4682 -12.3857 24.6584 C-12.375 21.8821 -12.3856 19.1064 -12.3984 16.3301 C-12.3971 14.5729 -12.3946 12.8158 -12.3906 11.0586 C-12.3947 10.2253 -12.3987 9.3919 -12.4029 8.5333 C-12.3255 -0.9374 -8.0551 0.0493 0 0 Z " fill="#FBF9FD" transform="translate(38.125,13.5625)"/>
<path d="M0 0 C3.3419 0.2445 4.6054 0.6054 7 3 C7.2001 5.9896 7.2797 8.8846 7.2656 11.875 C7.2675 12.7553 7.2695 13.6355 7.2714 14.5425 C7.2728 16.4053 7.2691 18.2681 7.2607 20.1309 C7.25 22.9885 7.2606 25.8455 7.2734 28.7031 C7.2721 30.5104 7.2696 32.3177 7.2656 34.125 C7.2697 34.9834 7.2737 35.8417 7.2779 36.7261 C7.2299 42.7701 7.2299 42.7701 5 45 C2 45.3125 2 45.3125 -1 45 C-3.5975 41.1038 -3.3058 37.802 -3.3008 33.2812 C-3.3051 32.427 -3.3094 31.5727 -3.3138 30.6925 C-3.3195 28.887 -3.32 27.0814 -3.3157 25.2759 C-3.3125 22.5103 -3.336 19.7459 -3.3613 16.9805 C-3.3636 15.2266 -3.3643 13.4727 -3.3633 11.7188 C-3.3725 10.8906 -3.3817 10.0624 -3.3912 9.2091 C-3.3438 3.3438 -3.3438 3.3438 0 0 Z " fill="#F9F6FC" transform="translate(14,13)"/>
<path d="M0 0 C11.5714 0 11.5714 0 15 3 C16.9824 6.9649 17.2963 8.65 17.3125 12.9375 C17.3209 13.4473 17.3209 13.4473 17.3633 16.0273 C16.9441 19.4578 16.1022 21.2715 14 24 C10 26 10 26 0 26 C0 17.42 0 8.84 0 0 Z " fill="#9267CC" transform="translate(36,23)"/>
</svg>
