<?xml version="1.0" encoding="UTF-8"?>
<svg xmlns="http://www.w3.org/2000/svg" version="1.1" width="72" height="72" viewBox="0 0 72 72">
<metadata><app-name>Image Vectorizer v1.27.3</app-name><export-timestamp>2026-08-03 14:52:02</export-timestamp><source-image>twemoji_icon_1f19a.png</source-image></metadata><path d="M0 0 C23.76 0 47.52 0 72 0 C72 23.76 72 47.52 72 72 C48.24 72 24.48 72 0 72 C0 48.24 0 24.48 0 0 Z " fill="#F28F0C" transform="translate(0,0)" />
<path d="M0 0 C3.1875 2.3125 3.1875 2.3125 5 5 C4 9 4 9 2 11 C-1.0391 10.9766 -1.0391 10.9766 -4.625 10.625 C-5.8135 10.5141 -7.002 10.4033 -8.2266 10.2891 C-9.1418 10.1937 -10.057 10.0983 -11 10 C-10.835 10.66 -10.835 10.66 -10 14 C-6.8061 15.4923 -3.5534 16.4806 -0.1992 17.5586 C3.9907 19.4464 5.9703 21.9406 8 26 C8.5971 31.7717 7.9623 35.6092 4.668 40.2969 C0.8806 44.164 -3.5875 44.957 -8.8516 45.0508 C-18.4092 44.4711 -18.4092 44.4711 -22 41 C-22.9375 37.9375 -22.9375 37.9375 -23 35 C-21 33 -21 33 -17.875 32.8125 C-13.8746 33.0061 -9.9651 33.4435 -6 34 C-4 30 -4 30 -4 28 C-4.6523 27.8298 -5.3045 27.6597 -5.9766 27.4844 C-12.2568 25.7429 -17.3076 23.8719 -21.875 19 C-23 17 -23 17 -23 13 C-23.99 13 -24.98 13 -26 13 C-26.1753 13.6394 -26.1753 13.6394 -27.0625 16.875 C-28.6491 22.1509 -30.5373 27.2925 -32.5 32.4375 C-32.7966 33.2308 -33.0931 34.024 -33.3987 34.8413 C-34.89 38.6936 -36.036 41.036 -39 44 C-41.875 44.3125 -41.875 44.3125 -45 43 C-49.5872 35.9868 -52.3502 27.5204 -55.375 19.75 C-55.8378 18.6053 -56.3005 17.4606 -56.7773 16.2812 C-57.2092 15.1727 -57.641 14.0641 -58.0859 12.9219 C-58.4783 11.9277 -58.8707 10.9335 -59.2749 9.9092 C-60.1038 6.5836 -59.7796 4.309 -59 1 C-56.1875 0.3125 -56.1875 0.3125 -53 0 C-50.2887 2.7113 -49.4665 3.7855 -48.1758 7.1602 C-47.8696 7.9536 -47.5635 8.747 -47.248 9.5645 C-46.9393 10.3888 -46.6306 11.2132 -46.3125 12.0625 C-45.9922 12.8907 -45.6718 13.7189 -45.3418 14.5723 C-43 20.7089 -43 20.7089 -43 23 C-42.01 23 -41.02 23 -40 23 C-39.6081 21.5975 -39.2163 20.195 -38.8125 18.75 C-37.5436 14.6052 -36.1963 10.5016 -34.6875 6.4375 C-34.5038 5.9315 -34.5038 5.9315 -33.5742 3.3711 C-32 1 -32 1 -29.0195 -0.0273 C-26 0 -26 0 -23 3 C-23 3.66 -23 4.32 -23 5 C-22.3967 4.6507 -21.7934 4.3013 -21.1719 3.9414 C-20.7723 3.7139 -20.7723 3.7139 -18.75 2.5625 C-17.9611 2.11 -17.1722 1.6576 -16.3594 1.1914 C-10.9443 -1.543 -5.7681 -1.3676 0 0 Z " fill="#FFFFFF" transform="translate(62,14)" />
</svg>
