<?xml version="1.0" encoding="UTF-8"?>
<!-- Generator: visioncortex VTracer 0.6.12 -->
<svg version="1.1" xmlns="http://www.w3.org/2000/svg" width="72" height="72">
<path d="M0 0 C23.76 0 47.52 0 72 0 C72 23.76 72 47.52 72 72 C48.24 72 24.48 72 0 72 C0 48.24 0 24.48 0 0 Z " fill="#226698" transform="translate(0,0)"/>
<path d="M0 0 C0.830156 -0.024492 1.660313 -0.048984 2.515625 -0.074219 C8.387791 -0.101831 13.037831 0.911685 17.875 4.375 C21.18811 8.225927 22.616964 12.131648 22.324219 17.320312 C21.205133 22.438915 18.385781 26.195854 14.3125 29.375 C9.182359 30.867405 4.179162 30.606735 -1.125 30.375 C-1.101797 31.362422 -1.078594 32.349844 -1.054688 33.367188 C-1.036641 34.648516 -1.018594 35.929844 -1 37.25 C-0.976797 38.526172 -0.953594 39.802344 -0.929688 41.117188 C-1.125 44.375 -1.125 44.375 -3.125 46.375 C-6.125 46.6875 -6.125 46.6875 -9.125 46.375 C-11.157024 43.326965 -11.376175 42.727017 -11.383789 39.30249 C-11.390093 38.488321 -11.396398 37.674153 -11.402893 36.835312 C-11.400869 36.397778 -11.400869 36.397778 -11.390625 34.183594 C-11.392538 33.282544 -11.394452 32.381494 -11.396423 31.45314 C-11.397784 29.549242 -11.394096 27.645335 -11.385742 25.741455 C-11.375028 22.820265 -11.385648 19.899687 -11.398438 16.978516 C-11.397116 15.130207 -11.394554 13.281899 -11.390625 11.433594 C-11.392649 10.995048 -11.392649 10.995048 -11.402893 8.775742 C-11.330933 -0.481537 -8.004157 0.012091 0 0 Z " fill="#FBFCFD" transform="translate(33.125,13.625)"/>
<path d="M0 0 C8.625 -0.25 8.625 -0.25 12 2 C12.671373 9.049421 12.671373 9.049421 10.769531 11.742188 C8.475343 13.372935 7.09783 13.308601 4.3125 13.1875 C2.889375 13.125625 1.46625 13.06375 0 13 C0 8.71 0 4.42 0 0 Z " fill="#25689A" transform="translate(32,23)"/>
</svg>
